{
  "accessors": [
    {
      "bufferView": 2,
      "componentType": 5126,
      "count": 15951,
      "max": [
        7.052304267883301,
        10.192119598388672,
        3.8958990573883057
      ],
      "min": [
        -4.88368034362793,
        -0.5058770179748535,
        -3.8458616733551025
      ],
      "type": "VEC3"
    },
    {
      "bufferView": 2,
      "byteOffset": 191412,
      "componentType": 5126,
      "count": 15951,
      "max": [
        1.0,
        1.0,
        1.0
      ],
      "min": [
        -1.0,
        -1.0,
        -1.0
      ],
      "type": "VEC3"
    },
    {
      "bufferView": 1,
      "componentType": 5126,
      "count": 15951,
      "max": [
        0.8424408435821533,
        0.9771310091018677
      ],
      "min": [
        0.43958404660224915,
        0.419033020734787
      ],
      "type": "VEC2"
    },
    {
      "bufferView": 0,
      "componentType": 5125,
      "count": 22848,
      "type": "SCALAR"
    }
  ],
  "asset": {
    "extras": {
      "author": "N1x (https://sketchfab.com/N1x)",
      "license": "CC-BY-4.0 (http://creativecommons.org/licenses/by/4.0/)",
      "source": "https://sketchfab.com/3d-models/low-poly-medieval-house-2f6dcdc5d6d546018dd8d4808f65018c",
      "title": "Low Poly Medieval House"
    },
    "generator": "Sketchfab-12.64.0",
    "version": "2.0"
  },
  "bufferViews": [
    {
      "buffer": 0,
      "byteLength": 91392,
      "name": "floatBufferViews",
      "target": 34963
    },
    {
      "buffer": 0,
      "byteLength": 127608,
      "byteOffset": 91392,
      "byteStride": 8,
      "name": "floatBufferViews",
      "target": 34962
    },
    {
      "buffer": 0,
      "byteLength": 382824,
      "byteOffset": 219000,
      "byteStride": 12,
      "name": "floatBufferViews",
      "target": 34962
    }
  ],
  "buffers": [
    {
      "byteLength": 601824,
      "uri": "scene.bin"
    }
  ],
  "images": [
    {
      "uri": "textures/material-env-project_baseColor.png"
    }
  ],
  "materials": [
    {
      "doubleSided": true,
      "name": "material-env-project",
      "pbrMetallicRoughness": {
        "baseColorTexture": {
          "index": 0
        },
        "metallicFactor": 0.3537571157618277,
        "roughnessFactor": 0.8153448276579146
      }
    }
  ],
  "meshes": [
    {
      "name": "building_03.001_material-env-project_0",
      "primitives": [
        {
          "attributes": {
            "NORMAL": 1,
            "POSITION": 0,
            "TEXCOORD_0": 2
          },
          "indices": 3,
          "material": 0,
          "mode": 4
        }
      ]
    }
  ],
  "nodes": [
    {
      "children": [
        1
      ],
      "matrix": [
        1.0,
        0.0,
        0.0,
        0.0,
        0.0,
        2.220446049250313e-16,
        -1.0,
        0.0,
        0.0,
        1.0,
        2.220446049250313e-16,
        0.0,
        0.0,
        0.0,
        0.0,
        1.0
      ],
      "name": "Sketchfab_model"
    },
    {
      "children": [
        2
      ],
      "matrix": [
        1.0,
        0.0,
        0.0,
        0.0,
        0.0,
        0.0,
        1.0,
        0.0,
        0.0,
        -1.0,
        0.0,
        0.0,
        0.0,
        0.0,
        0.0,
        1.0
      ],
      "name": "2ac49edd6e514383b6dc07a2cfee6e38.fbx"
    },
    {
      "children": [
        3
      ],
      "name": "RootNode"
    },
    {
      "children": [
        4
      ],
      "matrix": [
        1.0,
        0.0,
        0.0,
        0.0,
        0.0,
        0.9999999999999867,
        1.6292068494294585e-07,
        0.0,
        0.0,
        -1.6292068494294585e-07,
        0.9999999999999867,
        0.0,
        0.0,
        0.0,
        0.0,
        1.0
      ],
      "name": "building_03.001"
    },
    {
      "mesh": 0,
      "name": "building_03.001_material-env-project_0"
    }
  ],
  "samplers": [
    {
      "magFilter": 9729,
      "minFilter": 9987,
      "wrapS": 10497,
      "wrapT": 10497
    }
  ],
  "scene": 0,
  "scenes": [
    {
      "name": "Sketchfab_Scene",
      "nodes": [
        0
      ]
    }
  ],
  "textures": [
    {
      "sampler": 0,
      "source": 0
    }
  ]
}
